<svg xmlns="http://www.w3.org/2000/svg" viewBox="0 0 21.4 11" fill="#fff">
    <path d="M0,0H1.1V8.5H0Z" />
    <path
        d="M8.1,5.6a2.8,2.8,0,0,1-2.9,3A2.7,2.7,0,0,1,2.4,5.7,2.8,2.8,0,0,1,5.3,2.6,2.7,2.7,0,0,1,8.1,5.6Zm-4.6,0c0,1.3.7,2.3,1.7,2.3A2.1,2.1,0,0,0,7,5.6c0-1-.5-2.2-1.7-2.2S3.5,4.5,3.5,5.6Z" />
    <path
        d="M14.4,2.7v5a3.1,3.1,0,0,1-.9,2.6,2.6,2.6,0,0,1-2.1.7,3,3,0,0,1-1.9-.5l.3-.8a2.9,2.9,0,0,0,1.7.5c1.1,0,1.8-.6,1.8-2V7.5h0a1.9,1.9,0,0,1-1.8,1A2.6,2.6,0,0,1,9,5.7c0-2,1.3-3.1,2.6-3.1a1.8,1.8,0,0,1,1.8,1h0V2.7ZM13.3,5V4.5a1.5,1.5,0,0,0-1.5-1.1c-1,0-1.7.9-1.7,2.2s.5,2.1,1.7,2.1a1.5,1.5,0,0,0,1.4-1.1,1.3,1.3,0,0,0,.1-.6Z" />
    <path
        d="M21.4,5.6a2.8,2.8,0,0,1-2.9,3,2.7,2.7,0,0,1-2.8-2.9,2.8,2.8,0,0,1,2.9-3.1A2.7,2.7,0,0,1,21.4,5.6Zm-4.6,0c0,1.3.7,2.3,1.7,2.3a2.1,2.1,0,0,0,1.8-2.3c0-1-.5-2.2-1.7-2.2S16.8,4.5,16.8,5.6Z" />
</svg>